<?xml version="1.0" standalone="no"?>
<!DOCTYPE svg PUBLIC "-//W3C//DTD SVG 20010904//EN"
 "http://www.w3.org/TR/2001/REC-SVG-20010904/DTD/svg10.dtd">
<svg version="1.0" xmlns="http://www.w3.org/2000/svg"
 width="800.000000pt" height="800.000000pt" viewBox="0 0 800.000000 800.000000"
 preserveAspectRatio="xMidYMid meet">
<metadata>
Created by potrace 1.14, written by Peter Selinger 2001-2017
</metadata>
<g transform="translate(0.000000,800.000000) scale(0.100000,-0.100000)"
fill="#000000" stroke="none">
<path d="M1170 7985 c-573 -97 -1024 -532 -1147 -1105 -17 -81 -18 -215 -18
-2885 0 -2670 1 -2804 18 -2885 118 -551 548 -982 1092 -1095 66 -13 394 -15
2885 -15 2491 0 2819 2 2885 15 544 113 974 544 1092 1095 17 81 18 215 18
2885 0 2670 -1 2804 -18 2885 -59 275 -189 513 -386 710 -197 196 -417 317
-704 387 -68 16 -234 18 -2857 19 -2219 2 -2800 -1 -2860 -11z m5910 -1785 c0
-6 -53 -78 -117 -161 -65 -83 -127 -163 -138 -178 -11 -15 -130 -168 -264
-341 -135 -173 -270 -347 -300 -387 l-56 -72 -1955 -3 -1955 -3 -3 -254 c-1
-140 1 -258 6 -263 5 -5 788 -9 1740 -8 952 0 1733 -4 1736 -8 4 -6 -723 -953
-761 -992 -2 -3 -615 -7 -1361 -10 l-1357 -5 0 -295 0 -295 1115 -5 c613 -3
1114 -9 1114 -13 -1 -9 -786 -1021 -841 -1085 l-28 -32 -1355 -1 c-745 0
-1361 0 -1367 1 -10 0 -13 448 -13 2203 0 1212 3 2207 7 2210 11 12 6153 8
6153 -3z"/>
</g>
</svg>
